<?xml version="1.0" encoding="UTF-8" standalone="no"?>
<!-- Created with Inkscape (http://www.inkscape.org/) -->

<svg
   width="246.888mm"
   height="82.464996mm"
   viewBox="0 0 246.888 82.464997"
   version="1.1"
   id="svg5"
   xml:space="preserve"
   inkscape:version="1.2.2 (b0a8486541, 2022-12-01)"
   sodipodi:docname="007.svg"
   xmlns:inkscape="http://www.inkscape.org/namespaces/inkscape"
   xmlns:sodipodi="http://sodipodi.sourceforge.net/DTD/sodipodi-0.dtd"
   xmlns="http://www.w3.org/2000/svg"
   xmlns:svg="http://www.w3.org/2000/svg"><sodipodi:namedview
     id="namedview7"
     pagecolor="#505050"
     bordercolor="#eeeeee"
     borderopacity="1"
     inkscape:showpageshadow="0"
     inkscape:pageopacity="0"
     inkscape:pagecheckerboard="0"
     inkscape:deskcolor="#505050"
     inkscape:document-units="mm"
     showgrid="false"
     inkscape:zoom="1.3835305"
     inkscape:cx="466.56"
     inkscape:cy="101.55179"
     inkscape:window-width="1920"
     inkscape:window-height="997"
     inkscape:window-x="0"
     inkscape:window-y="0"
     inkscape:window-maximized="1"
     inkscape:current-layer="layer1" /><defs
     id="defs2" /><g
     inkscape:label="Layer 1"
     inkscape:groupmode="layer"
     id="layer1"
     transform="translate(14.066518,-81.038779)"><path
       style="fill:#040404;stroke:none;stroke-width:0.264583"
       d="M 21.388236,82.817421 C 13.902115,83.889857 7.4277597,88.744641 2.6028187,94.345771 -7.22759,105.75752 -12.020992,120.70621 -11.949052,135.62078 -11.889572,147.95697 -4.57202,162.70352 9.7465687,160.9451 17.859224,159.94868 25.10034,154.05377 29.947507,147.79161 39.025625,136.06342 43.154713,122.27995 43.083805,107.57494 43.025332,95.418491 35.493438,80.796745 21.388236,82.817421 m 55.033333,0 c -7.540625,1.080214 -13.989315,6.18035 -18.819812,11.79293 -9.841707,11.435039 -14.258925,26.129729 -14.253104,41.010429 0.0048,12.43964 7.280804,27.09544 21.695833,25.32432 7.202222,-0.88503 13.733197,-5.81898 18.388276,-11.11223 10.210271,-11.61045 15.130201,-26.95072 14.948161,-42.25793 -0.14605,-12.271379 -7.79885,-26.786132 -21.959354,-24.757519 m 65.616671,10.99918 c -2.40744,5.78067 -7.15274,10.903489 -10.88152,15.875009 -4.21031,5.61393 -8.20181,11.39851 -12.51399,16.93333 -7.84569,10.06951 -15.68847,19.72601 -18.937827,32.27917 h 19.050007 c 3.26284,-13.7758 12.59417,-23.38255 21.31616,-33.86667 5.17048,-6.21506 9.79805,-13.02305 13.6898,-20.10833 3.53827,-6.442009 7.062,-13.380469 7.06279,-20.902093 h -36.5125 -10.58333 c -1.2827,0 -3.24803,-0.366395 -4.43865,0.159649 -1.19936,0.529804 -1.89627,2.953674 -2.41856,4.073685 -1.71185,3.67199 -3.63141,7.27451 -4.95803,11.1125 -0.37676,1.090109 -1.7116,4.385479 -0.24077,5.132129 1.99443,1.0123 6.38096,0.1606 8.61642,0.15955 0.81413,-2.7e-4 1.97882,0.20081 2.47333,-0.61331 1.62189,-2.66906 1.21311,-8.678309 4.69503,-10.074969 1.96638,-0.78864 5.27473,-0.15965 7.38373,-0.15965 h 17.19791 m 24.60625,-9.789584 -1.5068,8.995834 -2.19736,6.08542 c 3.22712,-0.76835 7.00987,-0.26459 10.31875,-0.26459 8.18594,0 16.71902,0.7021 24.86977,-0.0155 2.93767,-0.25866 4.51776,-4.04069 7.93856,-4.20722 4.9141,-0.23921 9.89621,-0.0106 14.81666,-0.0106 1.64386,0 4.61619,0.56676 5.99917,-0.46098 2.50057,-1.85796 3.49567,-7.239771 4.055,-10.122354 H 166.64449 M 26.679903,89.674311 c 2.210329,-0.19883 3.505993,1.97802 3.885671,3.87771 0.840581,4.20563 0.266435,8.800579 -0.564886,12.964589 -2.595298,12.99871 -7.843837,26.32789 -15.318052,37.30625 -2.308754,3.39143 -6.3404763,9.66205 -11.0214843,9.75333 -2.2084511,0.0429 -3.18516009,-2.11058 -3.66291806,-3.9325 -1.08402394,-4.13411 -0.219049,-9.39694 0.72268294,-13.49375 C 3.6640617,123.34675 8.2966517,110.18215 15.94417,99.372851 c 2.436547,-3.44392 6.056577,-9.27759 10.735733,-9.69854 m 55.033332,0.006 c 2.375694,-0.28035 3.514725,1.90587 3.995209,3.87197 1.045104,4.27418 0.174625,8.716969 -0.57785,12.964589 -2.313517,13.06036 -7.941998,25.61219 -14.946842,36.77708 -2.235994,3.56447 -6.449218,10.16662 -11.224683,10.2825 -2.38125,0.058 -3.355446,-2.19921 -3.754967,-4.19708 -0.86651,-4.33202 -0.06244,-9.22311 0.791634,-13.49375 2.538941,-12.69656 7.772135,-25.47488 14.957689,-36.247929 2.351881,-3.52607 6.111875,-9.40898 10.75981,-9.95738 m 81.491675,27.684479 c -0.79693,-2.45031 -2.00052,-6.37964 0.58552,-8.30713 1.09035,-0.81227 3.15569,-0.42412 4.44156,-0.42412 h 10.58334 l -8.36798,10.58333 -4.06744,4.30159 -4.7625,0.19633 h -10.05417 l -5.0157,0.27199 -2.9218,4.22592 h 17.72709 c 2.99508,0 6.14018,0.48922 8.73125,-1.29778 6.32777,-4.36457 8.16398,-13.06724 13.75833,-18.25757 3.59992,-3.3401 10.22138,-2.15821 12.43542,-6.90298 h -24.34167 c -2.89639,0 -7.60227,-0.90801 -10.2952,0.15954 -1.26312,0.50086 -2.10767,2.16482 -2.7432,3.28004 -2.57519,4.51776 -2.35321,12.15179 4.30715,12.17084 z"
       id="path302"
       inkscape:export-filename="../../../path302.png"
       inkscape:export-xdpi="96"
       inkscape:export-ydpi="96" /></g></svg>
