<?xml version="1.0" encoding="UTF-8" standalone="no"?>
<!-- Created with Inkscape (http://www.inkscape.org/) -->

<svg
   width="101.16002mm"
   height="351.12869mm"
   viewBox="0 0 101.16002 351.12869"
   version="1.1"
   id="svg5"
   xml:space="preserve"
   inkscape:version="1.2.2 (b0a8486541, 2022-12-01)"
   sodipodi:docname="James1.svg"
   xmlns:inkscape="http://www.inkscape.org/namespaces/inkscape"
   xmlns:sodipodi="http://sodipodi.sourceforge.net/DTD/sodipodi-0.dtd"
   xmlns="http://www.w3.org/2000/svg"
   xmlns:svg="http://www.w3.org/2000/svg"><sodipodi:namedview
     id="namedview7"
     pagecolor="#505050"
     bordercolor="#eeeeee"
     borderopacity="1"
     inkscape:showpageshadow="0"
     inkscape:pageopacity="0"
     inkscape:pagecheckerboard="0"
     inkscape:deskcolor="#505050"
     inkscape:document-units="mm"
     showgrid="false"
     inkscape:zoom="0.4220752"
     inkscape:cx="-368.41776"
     inkscape:cy="598.23462"
     inkscape:window-width="1920"
     inkscape:window-height="997"
     inkscape:window-x="0"
     inkscape:window-y="0"
     inkscape:window-maximized="1"
     inkscape:current-layer="layer1" /><defs
     id="defs2" /><g
     inkscape:label="Layer 1"
     inkscape:groupmode="layer"
     id="layer1"
     transform="translate(-61.517762,18.488581)"><path
       style="fill:#000000;stroke-width:0.264583"
       d="m 77.312423,332.30604 c -2.76426,-0.98743 -5.783436,-3.54645 -7.101291,-6.01898 -0.698998,-1.31146 -0.906775,-2.05338 -1.005386,-3.58995 -0.120275,-1.87412 -0.09194,-1.98927 0.875447,-3.55655 0.549861,-0.89083 1.146113,-2.10937 1.325005,-2.70785 0.287432,-0.96158 0.263471,-1.21029 -0.206021,-2.13855 -0.415456,-0.82143 -0.575595,-1.85968 -0.734544,-4.7625 -0.111795,-2.04163 -0.401975,-4.72411 -0.644844,-5.96104 -0.567555,-2.89054 -0.411102,-5.58442 0.783682,-13.49375 0.230816,-1.52796 0.535887,-4.62359 0.677937,-6.87916 0.142049,-2.25557 0.49458,-6.12511 0.783401,-8.59896 0.288821,-2.47385 0.761584,-6.51039 1.050586,-8.97009 0.565056,-4.80922 0.919573,-8.82356 1.334139,-15.10699 0.144016,-2.18281 0.315665,-4.56406 0.381442,-5.29167 0.06578,-0.7276 0.19276,-2.93026 0.282183,-4.89479 0.08942,-1.96453 0.205809,-3.92906 0.258634,-4.36563 0.05282,-0.43656 0.164313,-2.57968 0.247751,-4.76249 0.08344,-2.18282 0.211006,-4.92125 0.283482,-6.08542 0.07248,-1.16417 0.250696,-5.15276 0.396043,-8.86354 0.145347,-3.71078 0.322165,-8.05656 0.392929,-9.65729 0.552702,-12.50252 0.700505,-15.68425 0.9341,-20.10834 0.454047,-8.59922 0.801995,-14.1788 1.062971,-17.04543 0.138094,-1.51686 0.251081,-3.80847 0.251081,-5.09246 0,-2.29664 -0.01504,-2.35119 -0.926503,-3.36007 -1.206346,-1.33528 -1.324966,-2.28692 -0.945864,-7.58835 0.436961,-6.11053 0.809485,-8.22872 3.185086,-18.11056 2.563596,-10.66385 3.144303,-15.37079 2.709308,-21.96042 -0.40003,-6.05995 -1.505001,-7.1549 -5.874111,-5.82083 -2.480765,0.75748 -3.608257,0.69202 -5.17372,-0.30038 -4.307018,-2.73037 -7.729051,-6.18507 -9.508814,-9.599579 -1.133599,-2.17483 -1.140946,-2.447523 -0.259873,-9.645684 1.276385,-10.427768 1.443627,-11.820609 1.703681,-14.18873 0.561373,-5.112025 1.046676,-10.160085 1.195496,-12.435417 0.08566,-1.309687 0.208604,-2.917031 0.273205,-3.571871 0.0646,-0.65485 0.188134,-3.69094 0.274519,-6.74688 0.149841,-5.30074 0.184486,-5.58428 0.753384,-6.16587 0.502485,-0.5137 5.838739,-2.69767 6.591413,-2.69767 0.143593,0 0.157442,0.6221 0.03387,1.52135 -0.402307,2.92757 -0.12032,3.70689 1.725889,4.76982 0.660181,0.3801 1.565692,0.96321 2.012248,1.29581 2.846247,2.11991 6.661624,1.79041 9.215225,-0.79583 1.599369,-1.61981 2.246887,-3.22107 2.464136,-6.09361 l 0.150635,-1.99175 -0.754856,-0.18946 c -0.415168,-0.1042 -1.414132,-0.0379 -2.219915,0.14737 -2.776693,0.63837 -4.5801,0.64967 -6.411599,0.0402 -3.204397,-1.06636 -4.532181,-2.76051 -4.790417,-6.11222 -0.08409,-1.09141 -0.457752,-2.98763 -0.830363,-4.21382 -1.119647,-3.68454 -0.846943,-6.14434 0.892554,-8.05086 1.549331,-1.6981 1.685091,-2.09587 1.476189,-4.32516 -0.231605,-2.47157 0.08327,-3.33601 1.409766,-3.87029 1.762536,-0.7099 2.620373,-2.06819 3.20337,-5.0721596 0.397485,-2.0481 0.747468,-2.97856 1.511059,-4.01725 0.641779,-0.87299 0.846508,-2.46504 0.31699,-2.46504 -0.219647,0 -0.255545,-0.92139 -0.131435,-3.37343999 0.472679,-9.33878031 0.734381,-14.13883041 0.867186,-15.90566041 l 0.14649,-1.94888 1.429456,0.11855 c 0.786201,0.0652 1.504172,0.19325 1.595493,0.28457 0.09132,0.0913 0.03051,2.52232 -0.135133,5.40222 -0.165645,2.8799001 -0.429456,7.4877404 -0.586251,10.2396604 -0.20025,3.51463 -0.390863,5.10926 -0.640577,5.35898 -0.467156,0.46715 -0.24093,1.65054 0.457938,2.39545 0.508564,0.54207 0.537419,0.78551 0.376346,3.175 -0.202099,2.9981496 0.184724,4.1898896 1.552877,4.7841796 1.335323,0.58003 1.584449,0.75541 1.666861,1.17342 0.11738,0.59539 -0.675655,1.26053 -1.502899,1.26053 -1.015471,0 -1.724459,0.57437 -1.516758,1.22877 0.09199,0.28985 0.876429,0.92589 1.743191,1.41342 2.06911,1.16382 2.487927,2.01712 2.432013,4.95501 -0.03936,2.06829 -0.0019,2.22236 0.75089,3.07962 0.435779,0.49633 0.792327,1.1115 0.792327,1.36706 0,0.25556 -0.47625,0.98132 -1.058334,1.61281 -0.847976,0.91994 -1.057529,1.34653 -1.054282,2.14625 0.0064,1.58617 0.305033,1.86252 1.431861,1.32517 0.515909,-0.24602 1.599142,-0.9858 2.407182,-1.64396 2.669529,-2.17436 4.035272,-1.50986 6.94859,3.38085 2.06073,3.45943 7.02826,13.6167 9.69837,19.83057 5.78916,13.472531 9.73545,25.288579 10.34361,30.971064 0.10685,0.998376 0.27293,1.500894 0.47424,1.43496 1.21272,-0.39719 1.89731,-8.43843 1.89731,-22.285973 0,-10.602391 -0.30455,-15.358331 -1.32502,-20.691841 l -0.36805,-1.92363 -2.55075,-2.4506 c -3.87055,-3.71858 -4.23377,-3.77484 -7.07375,-1.09575 -1.92646,1.81733 -3.32157,2.65712 -3.9888,2.40108 -0.22303,-0.0856 -0.6012,-0.45426 -0.84037,-0.81927 -0.64919,-0.99081 -1.98486,-5.6513 -2.06735,-7.21353 -0.10285,-1.94781 -0.49063,-2.36865 -3.98963,-4.32969 l -2.137952,-1.19824 -0.16809,-1.97676 c -0.09351,-1.09966 -0.437346,-2.62245 -0.774925,-3.43198 -0.487574,-1.1692 -0.601083,-1.91011 -0.577559,-3.76984 l 0.02928,-2.31464 -1.140298,-1.33589 c -1.500714,-1.75813 -2.107853,-3.67143 -2.120855,-6.6835296 -0.0089,-2.0658 0.05372,-2.38076 0.552461,-2.77813 0.519864,-0.41419 0.574815,-0.78186 0.724712,-4.84889999 0.264232,-7.16914001 1.115497,-9.93831031 3.826444,-12.44740041 3.445642,-3.1891 8.133432,-4.71528 14.483622,-4.71537 5.91074,-8e-5 7.2925,0.8112 9.6377,5.65865 2.10032,4.3412904 2.63442,7.6365604 1.72413,10.63728041 -0.58977,1.94408999 -0.51641,2.98209999 0.26172,3.70323999 0.56071,0.51966 0.66145,0.8494 0.66145,2.16513 0,2.70813 -0.99803,5.2764396 -2.7996,7.2043996 -0.93117,0.99651 -1.5736,2.97155 -1.86561,5.7355 -0.19134,1.81108 -0.3034,2.05909 -1.95133,4.31867 -1.58385,2.17171 -2.05433,3.10114 -2.27806,4.50023 -0.16191,1.01256 -0.1319,1.10209 0.32317,0.96421 2.41122,-0.73057 3.04648,-0.21239 3.8012,3.10058 0.45332,1.9899 0.72577,2.64021 1.39139,3.32102 1.73025,1.76974 6.08493,3.93867 12.24239,6.09753 7.32178,2.56709 10.04691,4.6556 10.54016,8.07789 0.0839,0.58208 0.22978,2.84427 0.32419,5.02708 0.0944,2.18281 0.20493,4.02828 0.24561,4.10104 0.0407,0.0728 0.15181,1.203857 0.24696,2.513545 0.0951,1.309687 0.22233,2.678906 0.28263,3.042708 0.0603,0.363802 0.17819,1.256771 0.26197,1.984375 0.74933,6.507728 1.56114,10.717889 2.76623,14.345986 0.4457,1.341852 0.81037,2.796571 0.81037,3.232705 0,0.436137 0.29423,2.8506 0.65385,5.365475 1.09321,7.645087 1.02467,9.36626 -0.47486,11.925026 -1.10393,1.883701 -2.68995,2.777021 -7.12312,4.012031 -1.48787,0.4145 -3.12081,1.55745 -3.65729,2.55986 -0.28143,0.52587 -1.06527,3.50007 -2.43162,9.22662 -0.77454,3.24618 -0.85249,3.95789 -0.85492,7.80521 -0.002,2.81556 0.14697,5.07514 0.44413,6.74688 0.24574,1.38245 0.58479,3.46604 0.75345,4.63021 0.35381,2.44214 2.49798,13.30991 2.89682,14.68262 0.37884,1.30384 0.33351,2.46057 -0.1199,3.06003 -0.62442,0.82557 -0.54478,6.88546 0.25712,19.56359 0.0829,1.30969 0.20148,2.79797 0.26363,3.3073 0.0622,0.50932 0.18254,2.05713 0.26753,3.43958 0.085,1.38245 0.20285,2.8112 0.26194,3.175 0.0591,0.3638 0.1767,1.67349 0.26134,2.91042 0.0847,1.23692 0.20909,2.66567 0.27654,3.175 0.0674,0.50932 0.24471,2.47385 0.39393,4.36562 1.43666,18.21392 1.76633,27.09571 1.34353,36.19692 l -0.32195,6.93016 -1.02757,3.04271 c -0.56517,1.67349 -1.08755,3.57849 -1.16085,4.23333 -0.0733,0.65485 -0.20984,1.905 -0.30343,2.77813 -0.0936,0.87312 -0.21169,1.88515 -0.26244,2.24896 -0.11537,0.827 -0.61499,6.8146 -0.90517,10.84791 -0.36106,5.01841 -0.26597,22.92345 0.14543,27.38438 0.69818,7.57062 1.5703,12.84882 3.03098,18.34401 0.70399,2.64848 0.75847,3.10454 0.46708,3.91038 -0.6491,1.79504 0.68482,3.27351 5.7352,6.35662 5.35847,3.27122 7.91982,4.59803 10.44648,5.41141 2.75221,0.88601 3.11735,1.10138 3.47873,2.0519 0.35476,0.93308 -0.28841,1.74815 -2.09049,2.64922 -4.5906,2.29539 -10.8336,2.9709 -18.58642,2.01107 -2.95631,-0.366 -3.43309,-0.49988 -4.62231,-1.29807 -2.3816,-1.59848 -2.60929,-1.62441 -9.05016,-1.03092 -3.12145,0.28762 -8.40858,-1.40206 -9.59333,-3.06589 -0.30834,-0.43304 -0.54188,-1.17756 -0.54188,-1.72752 0,-0.5316 -0.13812,-1.80287 -0.30693,-2.82509 -0.23614,-1.42986 -0.44399,-1.94836 -0.90115,-2.2479 -1.36988,-0.89757 -2.49833,-11.32615 -3.05956,-28.27464 -0.38624,-11.66416 -0.38578,-30.23833 8e-4,-34.79271 0.64621,-7.61203 1.23424,-11.87237 1.99028,-14.41979 1.8608,-6.26985 1.56198,-11.16694 -1.43983,-23.59617 -1.13625,-4.70475 -1.57945,-8.10118 -2.91107,-22.30904 -0.29324,-3.12869 -0.60413,-6.13502 -0.69086,-6.68072 -0.2837,-1.78488 -0.75315,-1.11886 -1.11575,1.58294 -1.05314,7.84714 -3.64494,21.67068 -5.96612,31.8207 -0.59741,2.61237 -0.97796,5.18718 -1.19269,8.06979 -0.17344,2.32834 -0.42232,5.18584 -0.55305,6.35 -0.13074,1.16417 -0.30811,2.89057 -0.39416,3.83646 -0.58764,6.45962 -3.169124,25.06803 -4.2394,30.55937 -0.363718,1.86616 -1.017106,7.15521 -1.307423,10.58334 -0.08626,1.01864 -0.450652,5.60255 -0.809749,10.18645 -0.711573,9.08331 -0.728044,9.26693 -1.317218,14.68438 -0.856297,7.87365 -2.087229,12.49847 -3.57365,13.42673 -0.686009,0.42844 -0.661612,1.15697 0.135218,4.03762 0.983289,3.55476 0.962792,3.66191 -1.273829,6.66001 -2.99018,4.00818 -4.321617,5.04981 -7.374871,5.76967 -2.028943,0.47834 -3.213015,0.48678 -4.486116,0.032 z M 97.756147,102.06365 c 0.241932,-0.21894 0.776814,-1.13592 1.188621,-2.03774 0.67454,-1.477151 0.74961,-1.928106 0.75746,-4.550071 0.007,-2.198354 -0.14627,-3.541564 -0.62475,-5.490104 l -0.633449,-2.579687 h -2.872274 c -1.579751,0 -2.872272,0.03242 -2.872272,0.07203 0,0.03962 0.296712,1.498135 0.65936,3.241146 0.991336,4.764701 0.860669,6.919828 -0.545163,8.991425 -0.446664,0.658201 -0.645012,1.267561 -0.591532,1.817291 0.07865,0.80843 0.116208,0.83004 1.66796,0.95935 2.159646,0.17997 3.342248,0.0504 3.866039,-0.42365 z m -3.446852,-0.71821 c -0.742405,-0.7424 0.116626,-2.655311 1.127715,-2.511221 1.084625,0.15458 0.81438,2.365271 -0.325585,2.663381 -0.28338,0.0741 -0.644337,0.006 -0.80213,-0.15216 z M 137.54795,62.001067 c 0.097,-0.305613 -0.0369,-0.956522 -0.3129,-1.521354 -0.81857,-1.675046 -3.67389,-2.834774 -7.48508,-3.040184 l -1.18182,-0.0637 -0.23655,1.260503 c -0.16259,0.86641 -0.1439,1.37214 0.0598,1.617583 0.52224,0.629264 6.16883,2.19238 8.14494,2.254727 0.62606,0.01976 0.88555,-0.110453 1.0116,-0.507582 z M 83.968233,14.098299 c 0,-0.39094 -0.173688,-0.85494 -0.385974,-1.03112 -0.608062,-0.50464 -0.952422,1.10151 -0.508601,2.37221 0.207581,0.59432 0.894575,-0.43558 0.894575,-1.34109 z m -5.622396,30.68864 c -0.56159,-0.3271 -0.607279,-1.38179 -0.07886,-1.82034 0.523998,-0.43488 1.195332,-0.25912 1.654138,0.43308 0.34347,0.51818 0.326746,0.6309 -0.166825,1.12448 -0.617952,0.61795 -0.754826,0.64349 -1.408457,0.26278 z"
       id="path302" /><path
       style="fill:#000000;stroke-width:0.264583"
       d="m 77.312423,332.30604 c -2.76426,-0.98743 -5.783436,-3.54645 -7.101291,-6.01898 -0.698998,-1.31146 -0.906775,-2.05338 -1.005386,-3.58995 -0.120275,-1.87412 -0.09194,-1.98927 0.875447,-3.55655 0.549861,-0.89083 1.146113,-2.10937 1.325005,-2.70785 0.287432,-0.96158 0.263471,-1.21029 -0.206021,-2.13855 -0.415456,-0.82143 -0.575595,-1.85968 -0.734544,-4.7625 -0.111795,-2.04163 -0.401975,-4.72411 -0.644844,-5.96104 -0.567555,-2.89054 -0.411102,-5.58442 0.783682,-13.49375 0.230816,-1.52796 0.535887,-4.62359 0.677937,-6.87916 0.142049,-2.25557 0.49458,-6.12511 0.783401,-8.59896 0.288821,-2.47385 0.761584,-6.51039 1.050586,-8.97009 0.565056,-4.80922 0.919573,-8.82356 1.334139,-15.10699 0.144016,-2.18281 0.315665,-4.56406 0.381442,-5.29167 0.06578,-0.7276 0.19276,-2.93026 0.282183,-4.89479 0.08942,-1.96453 0.205809,-3.92906 0.258634,-4.36563 0.05282,-0.43656 0.164313,-2.57968 0.247751,-4.76249 0.08344,-2.18282 0.211006,-4.92125 0.283482,-6.08542 0.07248,-1.16417 0.250696,-5.15276 0.396043,-8.86354 0.145347,-3.71078 0.322165,-8.05656 0.392929,-9.65729 0.552702,-12.50252 0.700505,-15.68425 0.9341,-20.10834 0.454047,-8.59922 0.801995,-14.1788 1.062971,-17.04543 0.138094,-1.51686 0.251081,-3.80847 0.251081,-5.09246 0,-2.29664 -0.01504,-2.35119 -0.926503,-3.36007 -1.206346,-1.33528 -1.324966,-2.28692 -0.945864,-7.58835 0.436961,-6.11053 0.809485,-8.22872 3.185086,-18.11056 2.563596,-10.66385 3.144303,-15.37079 2.709308,-21.96042 -0.40003,-6.05995 -1.505001,-7.1549 -5.874111,-5.82083 -2.480765,0.75748 -3.608257,0.69202 -5.17372,-0.30038 -4.307018,-2.73037 -7.729051,-6.18507 -9.508814,-9.599579 -1.133599,-2.17483 -1.140946,-2.447523 -0.259873,-9.645684 1.276385,-10.427768 1.443627,-11.820609 1.703681,-14.18873 0.561373,-5.112025 1.046676,-10.160085 1.195496,-12.435417 0.08566,-1.309687 0.208604,-2.917031 0.273205,-3.571871 0.0646,-0.65485 0.188134,-3.69094 0.274519,-6.74688 0.149841,-5.30074 0.184486,-5.58428 0.753384,-6.16587 0.502485,-0.5137 5.838739,-2.69767 6.591413,-2.69767 0.143593,0 0.157442,0.6221 0.03387,1.52135 -0.402307,2.92757 -0.12032,3.70689 1.725889,4.76982 0.660181,0.3801 1.565692,0.96321 2.012248,1.29581 2.846247,2.11991 6.661624,1.79041 9.215225,-0.79583 1.599369,-1.61981 2.246887,-3.22107 2.464136,-6.09361 l 0.150635,-1.99175 -0.754856,-0.18946 c -0.415168,-0.1042 -1.414132,-0.0379 -2.219915,0.14737 -2.776693,0.63837 -4.5801,0.64967 -6.411599,0.0402 -3.204397,-1.06636 -4.532181,-2.76051 -4.790417,-6.11222 -0.08409,-1.09141 -0.457752,-2.98763 -0.830363,-4.21382 -1.119647,-3.68454 -0.846943,-6.14434 0.892554,-8.05086 1.549331,-1.6981 1.685091,-2.09587 1.476189,-4.32516 -0.231605,-2.47157 0.08327,-3.33601 1.409766,-3.87029 1.762536,-0.7099 2.620373,-2.06819 3.20337,-5.0721596 0.397485,-2.0481 0.747468,-2.97856 1.511059,-4.01725 0.641779,-0.87299 0.846508,-2.46504 0.31699,-2.46504 -0.219647,0 -0.255545,-0.92139 -0.131435,-3.37343999 0.472679,-9.33878031 0.734381,-14.13883041 0.867186,-15.90566041 l 0.14649,-1.94888 1.429456,0.11855 c 0.786201,0.0652 1.504172,0.19325 1.595493,0.28457 0.09132,0.0913 0.03051,2.52232 -0.135133,5.40222 -0.165645,2.8799001 -0.429456,7.4877404 -0.586251,10.2396604 -0.20025,3.51463 -0.390863,5.10926 -0.640577,5.35898 -0.467156,0.46715 -0.24093,1.65054 0.457938,2.39545 0.508564,0.54207 0.537419,0.78551 0.376346,3.175 -0.202099,2.9981496 0.184724,4.1898896 1.552877,4.7841796 1.335323,0.58003 1.584449,0.75541 1.666861,1.17342 0.11738,0.59539 -0.675655,1.26053 -1.502899,1.26053 -1.015471,0 -1.724459,0.57437 -1.516758,1.22877 0.09199,0.28985 0.876429,0.92589 1.743191,1.41342 2.06911,1.16382 2.487927,2.01712 2.432013,4.95501 -0.03936,2.06829 -0.0019,2.22236 0.75089,3.07962 0.435779,0.49633 0.792327,1.1115 0.792327,1.36706 0,0.25556 -0.47625,0.98132 -1.058334,1.61281 -0.847976,0.91994 -1.057529,1.34653 -1.054282,2.14625 0.0064,1.58617 0.305033,1.86252 1.431861,1.32517 0.515909,-0.24602 1.599142,-0.9858 2.407182,-1.64396 2.669529,-2.17436 4.035272,-1.50986 6.94859,3.38085 2.06073,3.45943 7.02826,13.6167 9.69837,19.83057 5.78916,13.472531 9.73545,25.288579 10.34361,30.971064 0.10685,0.998376 0.27293,1.500894 0.47424,1.43496 1.21272,-0.39719 1.89731,-8.43843 1.89731,-22.285973 0,-10.602391 -0.30455,-15.358331 -1.32502,-20.691841 l -0.36805,-1.92363 -2.55075,-2.4506 c -3.87055,-3.71858 -4.23377,-3.77484 -7.07375,-1.09575 -1.92646,1.81733 -3.32157,2.65712 -3.9888,2.40108 -0.22303,-0.0856 -0.6012,-0.45426 -0.84037,-0.81927 -0.64919,-0.99081 -1.98486,-5.6513 -2.06735,-7.21353 -0.10285,-1.94781 -0.49063,-2.36865 -3.98963,-4.32969 l -2.137952,-1.19824 -0.16809,-1.97676 c -0.09351,-1.09966 -0.437346,-2.62245 -0.774925,-3.43198 -0.487574,-1.1692 -0.601083,-1.91011 -0.577559,-3.76984 l 0.02928,-2.31464 -1.140298,-1.33589 c -1.500714,-1.75813 -2.107853,-3.67143 -2.120855,-6.6835296 -0.0089,-2.0658 0.05372,-2.38076 0.552461,-2.77813 0.519864,-0.41419 0.574815,-0.78186 0.724712,-4.84889999 0.264232,-7.16914001 1.115497,-9.93831031 3.826444,-12.44740041 3.445642,-3.1891 8.133432,-4.71528 14.483622,-4.71537 5.91074,-8e-5 7.2925,0.8112 9.6377,5.65865 2.10032,4.3412904 2.63442,7.6365604 1.72413,10.63728041 -0.58977,1.94408999 -0.51641,2.98209999 0.26172,3.70323999 0.56071,0.51966 0.66145,0.8494 0.66145,2.16513 0,2.70813 -0.99803,5.2764396 -2.7996,7.2043996 -0.93117,0.99651 -1.5736,2.97155 -1.86561,5.7355 -0.19134,1.81108 -0.3034,2.05909 -1.95133,4.31867 -1.58385,2.17171 -2.05433,3.10114 -2.27806,4.50023 -0.16191,1.01256 -0.1319,1.10209 0.32317,0.96421 2.41122,-0.73057 3.04648,-0.21239 3.8012,3.10058 0.45332,1.9899 0.72577,2.64021 1.39139,3.32102 1.73025,1.76974 6.08493,3.93867 12.24239,6.09753 7.32178,2.56709 10.04691,4.6556 10.54016,8.07789 0.0839,0.58208 0.22978,2.84427 0.32419,5.02708 0.0944,2.18281 0.20493,4.02828 0.24561,4.10104 0.0407,0.0728 0.15181,1.203857 0.24696,2.513545 0.0951,1.309687 0.22233,2.678906 0.28263,3.042708 0.0603,0.363802 0.17819,1.256771 0.26197,1.984375 0.74933,6.507728 1.56114,10.717889 2.76623,14.345986 0.4457,1.341852 0.81037,2.796571 0.81037,3.232705 0,0.436137 0.29423,2.8506 0.65385,5.365475 1.09321,7.645087 1.02467,9.36626 -0.47486,11.925026 -1.10393,1.883701 -2.68995,2.777021 -7.12312,4.012031 -1.48787,0.4145 -3.12081,1.55745 -3.65729,2.55986 -0.28143,0.52587 -1.06527,3.50007 -2.43162,9.22662 -0.77454,3.24618 -0.85249,3.95789 -0.85492,7.80521 -0.002,2.81556 0.14697,5.07514 0.44413,6.74688 0.24574,1.38245 0.58479,3.46604 0.75345,4.63021 0.35381,2.44214 2.49798,13.30991 2.89682,14.68262 0.37884,1.30384 0.33351,2.46057 -0.1199,3.06003 -0.62442,0.82557 -0.54478,6.88546 0.25712,19.56359 0.0829,1.30969 0.20148,2.79797 0.26363,3.3073 0.0622,0.50932 0.18254,2.05713 0.26753,3.43958 0.085,1.38245 0.20285,2.8112 0.26194,3.175 0.0591,0.3638 0.1767,1.67349 0.26134,2.91042 0.0847,1.23692 0.20909,2.66567 0.27654,3.175 0.0674,0.50932 0.24471,2.47385 0.39393,4.36562 1.43666,18.21392 1.76633,27.09571 1.34353,36.19692 l -0.32195,6.93016 -1.02757,3.04271 c -0.56517,1.67349 -1.08755,3.57849 -1.16085,4.23333 -0.0733,0.65485 -0.20984,1.905 -0.30343,2.77813 -0.0936,0.87312 -0.21169,1.88515 -0.26244,2.24896 -0.11537,0.827 -0.61499,6.8146 -0.90517,10.84791 -0.36106,5.01841 -0.26597,22.92345 0.14543,27.38438 0.69818,7.57062 1.5703,12.84882 3.03098,18.34401 0.70399,2.64848 0.75847,3.10454 0.46708,3.91038 -0.6491,1.79504 0.68482,3.27351 5.7352,6.35662 5.35847,3.27122 7.91982,4.59803 10.44648,5.41141 2.75221,0.88601 3.11735,1.10138 3.47873,2.0519 0.35476,0.93308 -0.28841,1.74815 -2.09049,2.64922 -4.5906,2.29539 -10.8336,2.9709 -18.58642,2.01107 -2.95631,-0.366 -3.43309,-0.49988 -4.62231,-1.29807 -2.3816,-1.59848 -2.60929,-1.62441 -9.05016,-1.03092 -3.12145,0.28762 -8.40858,-1.40206 -9.59333,-3.06589 -0.30834,-0.43304 -0.54188,-1.17756 -0.54188,-1.72752 0,-0.5316 -0.13812,-1.80287 -0.30693,-2.82509 -0.23614,-1.42986 -0.44399,-1.94836 -0.90115,-2.2479 -1.36988,-0.89757 -2.49833,-11.32615 -3.05956,-28.27464 -0.38624,-11.66416 -0.38578,-30.23833 8e-4,-34.79271 0.64621,-7.61203 1.23424,-11.87237 1.99028,-14.41979 1.8608,-6.26985 1.56198,-11.16694 -1.43983,-23.59617 -1.13625,-4.70475 -1.57945,-8.10118 -2.91107,-22.30904 -0.29324,-3.12869 -0.60413,-6.13502 -0.69086,-6.68072 -0.2837,-1.78488 -0.75315,-1.11886 -1.11575,1.58294 -1.05314,7.84714 -3.64494,21.67068 -5.96612,31.8207 -0.59741,2.61237 -0.97796,5.18718 -1.19269,8.06979 -0.17344,2.32834 -0.42232,5.18584 -0.55305,6.35 -0.13074,1.16417 -0.30811,2.89057 -0.39416,3.83646 -0.58764,6.45962 -3.169124,25.06803 -4.2394,30.55937 -0.363718,1.86616 -1.017106,7.15521 -1.307423,10.58334 -0.08626,1.01864 -0.450652,5.60255 -0.809749,10.18645 -0.711573,9.08331 -0.728044,9.26693 -1.317218,14.68438 -0.856297,7.87365 -2.087229,12.49847 -3.57365,13.42673 -0.686009,0.42844 -0.661612,1.15697 0.135218,4.03762 0.983289,3.55476 0.962792,3.66191 -1.273829,6.66001 -2.99018,4.00818 -4.321617,5.04981 -7.374871,5.76967 -2.028943,0.47834 -3.213015,0.48678 -4.486116,0.032 z M 97.756147,102.06365 c 0.241932,-0.21894 0.776814,-1.13592 1.188621,-2.03774 0.67454,-1.477151 0.74961,-1.928106 0.75746,-4.550071 0.007,-2.198354 -0.14627,-3.541564 -0.62475,-5.490104 l -0.633449,-2.579687 h -2.872274 c -1.579751,0 -2.872272,0.03242 -2.872272,0.07203 0,0.03962 0.296712,1.498135 0.65936,3.241146 0.991336,4.764701 0.860669,6.919828 -0.545163,8.991425 -0.446664,0.658201 -0.645012,1.267561 -0.591532,1.817291 0.07865,0.80843 0.116208,0.83004 1.66796,0.95935 2.159646,0.17997 3.342248,0.0504 3.866039,-0.42365 z m -3.446852,-0.71821 c -0.742405,-0.7424 0.116626,-2.655311 1.127715,-2.511221 1.084625,0.15458 0.81438,2.365271 -0.325585,2.663381 -0.28338,0.0741 -0.644337,0.006 -0.80213,-0.15216 z M 137.54795,62.001067 c 0.097,-0.305613 -0.0369,-0.956522 -0.3129,-1.521354 -0.81857,-1.675046 -3.67389,-2.834774 -7.48508,-3.040184 l -1.18182,-0.0637 -0.23655,1.260503 c -0.16259,0.86641 -0.1439,1.37214 0.0598,1.617583 0.52224,0.629264 6.16883,2.19238 8.14494,2.254727 0.62606,0.01976 0.88555,-0.110453 1.0116,-0.507582 z M 83.968233,14.098299 c 0,-0.39094 -0.173688,-0.85494 -0.385974,-1.03112 -0.608062,-0.50464 -0.952422,1.10151 -0.508601,2.37221 0.207581,0.59432 0.894575,-0.43558 0.894575,-1.34109 z m -5.622396,30.68864 c -0.56159,-0.3271 -0.607279,-1.38179 -0.07886,-1.82034 0.523998,-0.43488 1.195332,-0.25912 1.654138,0.43308 0.34347,0.51818 0.326746,0.6309 -0.166825,1.12448 -0.617952,0.61795 -0.754826,0.64349 -1.408457,0.26278 z"
       id="path336" /></g></svg>
