<?xml version="1.0" encoding="UTF-8" standalone="no"?>
<!-- Created with Inkscape (http://www.inkscape.org/) -->

<svg
   width="140.07808mm"
   height="350.45175mm"
   viewBox="0 0 140.07808 350.45175"
   version="1.1"
   id="svg5"
   xml:space="preserve"
   inkscape:version="1.2.2 (b0a8486541, 2022-12-01)"
   sodipodi:docname="James2.svg"
   xmlns:inkscape="http://www.inkscape.org/namespaces/inkscape"
   xmlns:sodipodi="http://sodipodi.sourceforge.net/DTD/sodipodi-0.dtd"
   xmlns="http://www.w3.org/2000/svg"
   xmlns:svg="http://www.w3.org/2000/svg"><sodipodi:namedview
     id="namedview7"
     pagecolor="#505050"
     bordercolor="#eeeeee"
     borderopacity="1"
     inkscape:showpageshadow="0"
     inkscape:pageopacity="0"
     inkscape:pagecheckerboard="0"
     inkscape:deskcolor="#505050"
     inkscape:document-units="mm"
     showgrid="false"
     inkscape:zoom="3.3766016"
     inkscape:cx="130.75277"
     inkscape:cy="175.91652"
     inkscape:window-width="1920"
     inkscape:window-height="997"
     inkscape:window-x="0"
     inkscape:window-y="0"
     inkscape:window-maximized="1"
     inkscape:current-layer="layer1" /><defs
     id="defs2" /><g
     inkscape:label="Layer 1"
     inkscape:groupmode="layer"
     id="layer1"
     transform="translate(-61.214401,17.535555)"><path
       id="path419"
       style="fill:#000000;stroke-width:0.513226"
       d="m 105.09648,-16.802266 c -2.32472,-0.01199 -4.43609,0.245912 -5.801716,0.814937 -4.377583,1.824022 -9.439735,6.9366914 -8.901266,8.9901488 0.162249,0.6187261 0.05559,0.8716385 -0.279569,0.6650757 -0.354529,-0.2185041 -0.425474,0.123998 -0.206706,0.993221 0.183594,0.7294664 0.101283,1.4694938 -0.182418,1.6443441 -0.283681,0.1748521 -0.51573,-0.088106 -0.51573,-0.5839437 0,-0.7011739 -0.136847,-0.7646272 -0.6165,-0.2862874 -0.387165,0.3860898 -0.602263,2.1887478 -0.577743,4.84311524 0.03207,3.47162016 0.276426,4.70114396 1.365808,6.87141516 0.729759,1.4537808 1.477836,3.2435761 1.662431,3.9770181 0.559076,2.221355 1.163532,1.991556 1.546676,-0.588078 0.199677,-1.3443757 0.675657,-3.3345378 1.057816,-4.4224687 0.382177,-1.0879309 0.57281,-2.8175311 0.42323,-3.843693 -0.14956,-1.0261648 -0.04319,-2.20870514 0.236678,-2.62774662 0.434284,-0.65023928 0.665818,-0.59381369 1.579749,0.38447266 1.229636,1.31621776 1.55897,1.35234126 5.20743,0.5720581 2.28358,-0.48838147 2.77202,-0.45584427 3.2675,0.2201416 0.43123,0.58809756 1.13523,0.72114786 2.70578,0.51107996 1.48336,-0.1984074 2.9632,-0.096216 3.81372,0.1725992 0.0237,-0.00277 0.0485,-0.00425 0.0744,-0.00413 0.0826,3.61e-4 0.17621,0.015777 0.27957,0.050643 0.27863,0.093989 0.51951,0.2526959 0.73639,0.4480347 0.26788,0.2623847 0.4154,0.6015872 0.52968,0.9518799 0.0881,0.3058237 0.12284,0.6223593 0.14883,0.938444 0.0161,0.2082698 0.0228,0.4175206 0.0269,0.6263184 0.003,0.1712818 0.004,0.3423609 0.004,0.5136637 4.3e-4,0.1473848 4.3e-4,0.2949654 5.2e-4,0.4423502 5.1e-4,0.01109 6.8e-4,0.022033 0.001,0.033073 0.0998,0.077544 0.16692,0.2358095 0.16692,0.4661214 0,0.4159654 0.289,0.862907 0.64234,0.9937378 0.36684,0.1358331 0.0616,0.4690511 -0.7121,0.7766968 -0.74518,0.2963138 -2.01725,1.4721018 -2.82671,2.6127601 -0.80929,1.140666 -1.78772,2.079144 -2.17402,2.085144 -0.47617,0.0074 -0.60286,0.38237 -0.39274,1.16427 0.17045,0.634241 0.31277,2.152474 0.31677,3.373955 0.005,1.553378 0.20024,2.152785 0.64958,1.99471 0.66888,-0.235311 0.69186,-0.861433 0.1018,-2.806547 -0.42487,-1.400596 0.27081,-1.486772 1.83089,-0.22686 1.03982,0.839655 1.07229,1.001435 0.34469,1.727027 -0.4715,0.47019 -0.68499,1.250867 -0.51677,1.892391 0.1643,0.62649 0.0453,1.092439 -0.27957,1.092439 -0.31973,0 -0.12279,0.725124 0.45217,1.665532 1.28786,2.106282 1.27785,2.434477 -0.0687,2.434477 -0.92832,0 -0.99217,-0.118814 -0.42788,-0.796851 0.55446,-0.666215 0.47971,-0.979651 -0.45785,-1.914612 -1.38256,-1.37871 -2.83675,-0.722131 -2.99672,1.353406 -0.11921,1.546582 0.56794,1.790131 1.31155,0.465088 0.59022,-1.05174 1.35749,-0.536312 0.91467,0.614433 -0.22354,0.580911 -1.05916,0.791166 -3.14709,0.791166 -1.56352,0 -2.84272,-0.230765 -2.84272,-0.51263 0,-0.804569 -0.73489,-0.605057 -1.95906,0.532267 -0.634001,0.589091 -1.11904,1.651184 -1.11104,2.434477 l 0.01395,1.389579 0.875918,-1.409217 c 0.73239,-1.17797 1.21532,-1.401273 2.94142,-1.358573 1.13585,0.0281 2.64352,0.237948 3.35018,0.466638 l 1.28468,0.415996 -1.156,0.361735 c -1.32233,0.413557 -1.49812,1.026678 -0.41341,1.441772 0.61543,0.235509 0.54932,0.636094 -0.38344,2.334224 -1.30506,2.375966 -2.5601,2.875196 -4.63538,1.842782 -1.09869,-0.546572 -1.33783,-0.565409 -0.92707,-0.07183 0.701,0.842274 1.40189,8.029464 0.77979,7.995894 -0.63292,-0.03417 -9.183352,-10.486581 -10.805022,-13.208496 -1.024359,-1.719356 -1.244914,-2.606462 -0.988053,-3.971851 0.474214,-2.520852 -0.329801,-2.20611 -3.038574,1.189075 -5.471334,6.857787 -5.160422,6.585001 -8.589657,7.534424 -3.918897,1.084999 -8.49668,3.750246 -10.657747,6.204789 -2.873349,3.263532 -4.105089,6.363262 -4.190959,10.547677 -0.108474,5.285662 0.831554,22.202586 1.273307,22.915397 0.201098,0.324485 0.442718,2.146744 0.536918,4.049365 0.171754,3.468837 1.872254,12.047967 2.876311,14.512293 0.363725,0.89272 0.369503,1.751814 0.01809,2.673738 -0.378686,0.993301 -0.343726,1.534685 0.130742,2.015898 0.440156,0.446415 0.690394,2.80053 0.778764,7.320997 0.207956,10.63877 0.164464,14.5171 -0.448035,39.89576 -0.318687,13.20432 -0.45256,24.13499 -0.297656,24.28947 0.154886,0.15448 0.749676,-0.27099 1.321883,-0.94516 0.965989,-1.13815 1.089274,-1.16272 1.724959,-0.34882 0.376553,0.48221 1.268066,1.09767 1.980758,1.36788 1.111696,0.42152 1.345375,0.91364 1.645894,3.46335 0.192656,1.63468 0.888389,5.05523 1.546159,7.60109 0.657771,2.54587 1.486393,6.24355 1.841231,8.21655 0.354856,1.97319 1.06248,4.62573 1.571997,5.89422 1.067185,2.65659 2.20808,8.41058 3.037541,15.31534 0.317723,2.64485 0.804739,5.23163 1.082104,5.74849 0.735636,1.37077 0.02185,4.85928 -1.431437,6.99492 -0.694391,1.02045 -1.474392,2.41082 -1.733227,3.08973 -1.964868,5.15385 -3.128528,20.85632 -2.933155,39.57847 0.104632,10.02563 -0.06225,13.92575 -0.827339,19.34869 -0.865566,6.13509 -0.900884,7.79544 -0.365353,17.16949 0.326075,5.7076 0.596397,11.05172 0.600997,11.87576 0.0064,1.14641 0.150462,1.35673 0.611849,0.89659 0.878035,-0.87563 1.664471,-0.73727 0.91674,0.16123 -0.348876,0.41924 -0.505586,1.09657 -0.348299,1.50533 0.166038,0.4315 -0.05584,0.81031 -0.52865,0.90331 -0.463458,0.0912 -0.880816,0.78342 -0.968416,1.60662 -0.132635,1.24643 -0.04486,1.35653 0.632003,0.79633 0.644257,-0.53324 0.765931,-0.51703 0.678511,0.0915 -0.328504,2.2846 0.103502,6.137 0.761711,6.79338 0.410511,0.40941 0.606494,0.88433 0.435115,1.05523 -0.171379,0.17091 -0.972295,-0.37802 -1.779219,-1.22008 -0.806923,-0.84187 -1.580402,-1.53117 -1.719275,-1.53117 -0.583394,0 -0.179439,1.90705 0.713135,3.36672 0.528946,0.86505 1.134958,2.13362 1.346687,2.81895 l 0.38499,1.24592 -1.348755,-1.2423 c -1.865921,-1.71905 -1.706623,-0.57295 0.169499,1.21956 0.834926,0.79772 2.627039,1.74798 3.982702,2.1115 5.662801,1.51851 9.801763,0.44524 11.598259,-3.00705 0.914955,-1.75826 0.923773,-2.10948 0.173633,-7.14478 -0.85505,-5.73959 -0.712243,-7.34528 0.686779,-7.71013 0.787495,-0.20537 0.943591,-1.12535 1.201994,-7.09414 0.163306,-3.77217 0.664317,-8.68912 1.113111,-10.92595 1.108066,-5.52274 1.511508,-5.83323 1.324983,-1.02009 -0.04837,1.24806 0.207336,2.32648 0.63562,2.68097 0.394085,0.32615 2.896356,0.86742 5.560906,1.20303 4.50277,0.56718 5.10375,0.53164 8.51886,-0.50281 2.02064,-0.61211 3.95992,-1.11259 4.30878,-1.11259 0.34886,0 1.73444,0.67468 3.07888,1.49965 1.34445,0.82476 4.14512,2.00674 6.22391,2.62619 6.6515,1.98209 16.29026,0.85266 18.83709,-2.20762 0.46945,-0.56389 0.33748,-1.07272 -0.61185,-2.35592 -0.66584,-0.90001 -1.73886,-2.09324 -2.38435,-2.65152 -1.17056,-1.01243 -5.0101,-2.31997 -5.46892,-1.86242 -0.13301,0.13265 0.52617,0.40577 1.46503,0.60668 2.37412,0.50805 2.83202,0.86936 1.67328,1.32188 -1.43223,0.55941 -3.03769,0.53682 -4.62555,-0.0651 -1.32505,-0.50239 -1.34743,-0.56882 -0.50178,-1.50068 0.70338,-0.77509 0.86051,-1.79594 0.76791,-4.98368 -0.0914,-3.14308 0.11292,-4.50738 0.94568,-6.31537 0.94119,-2.04367 7.37803,-32.98382 9.59631,-46.1269 1.24316,-7.36575 2.76594,-15.00844 4.23075,-21.23333 1.55736,-6.6184 1.52279,-6.86952 -2.41587,-17.58136 -1.42688,-3.88037 -3.63132,-11.14863 -4.89841,-16.15095 -1.2671,-5.00252 -2.97145,-10.91956 -3.78737,-13.14907 -0.81592,-2.22952 -1.8846,-5.9782 -2.37505,-8.33024 -0.49026,-2.35205 -1.57075,-5.51131 -2.40088,-7.02076 -0.83012,-1.50946 -1.95025,-4.46271 -2.48874,-6.56239 -0.53849,-2.09969 -1.58848,-5.47745 -2.33319,-7.506 -1.11528,-3.038 -1.37942,-4.72707 -1.49862,-9.58185 -0.13543,-5.51563 -0.28006,-6.2391 -2.25464,-11.27528 -2.19401,-5.59571 -2.49,-7.10988 -1.56941,-8.02793 0.30047,-0.29964 0.56259,-1.32574 0.58239,-2.28048 0.0373,-1.80367 1.41475,-7.734247 2.72438,-11.730035 0.41575,-1.268461 1.22586,-4.596997 1.79989,-7.396448 0.57404,-2.799433 1.13961,-5.185679 1.25729,-5.303035 0.11768,-0.117356 1.83634,1.07728 3.81941,2.655135 4.2865,3.410799 4.66873,3.455375 13.68236,1.582849 6.19452,-1.286851 7.1625,-1.688204 18.86397,-7.811926 l 3.4463,-1.803508 4.59352,0.838192 c 2.52643,0.460942 4.70223,0.838192 4.83485,0.838192 0.45965,0 -0.0435,-2.549594 -1.16893,-5.922119 l -1.13119,-3.389457 -1.03095,1.708422 c -0.56696,0.939882 -1.0787,1.7644 -1.1374,1.83193 -0.0587,0.06754 -0.78337,0.257617 -1.61075,0.422196 -1.35814,0.270149 -1.79174,-0.03265 -4.45968,-3.112471 -1.62928,-1.880984 -2.95544,-3.909691 -2.95744,-4.522205 -10e-4,-0.610938 -0.5377,-1.77763 -1.19166,-2.592606 l -1.18907,-1.481564 -3.39308,1.353406 c -2.06595,0.824288 -4.38671,1.353923 -5.93348,1.353923 -1.97734,0 -2.8121,0.267494 -3.7667,1.206128 -1.69857,1.67014 -3.91366,2.008152 -5.14077,0.784448 -0.53242,-0.530953 -1.44902,-0.965316 -2.03709,-0.965316 -0.7651,0 -1.29289,-0.567027 -1.85466,-1.99316 -0.43791,-1.111744 -1.32988,-2.240912 -2.01745,-2.553333 -0.98528,-0.447664 -1.20601,-0.895983 -1.10071,-2.235005 0.11417,-1.45181 -0.0913,-1.773255 -1.53892,-2.408639 -1.1197,-0.491454 -1.67019,-1.087173 -1.67019,-1.807641 0,-0.591122 -0.32992,-1.544467 -0.73328,-2.118734 -0.40335,-0.574267 -1.22334,-2.494885 -1.82211,-4.267957 -1.86282,-5.514329 -6.93144,-11.472486 -10.24331,-12.040608 -1.01652,-0.174385 -2.27867,-0.645679 -2.80448,-1.047482 -0.92544,-0.707157 -0.91861,-0.783152 0.21033,-2.364196 0.65969,-0.923872 1.26695,-2.676054 1.39784,-4.034379 0.20443,-2.121788 0.0826,-2.498929 -1.04541,-3.235979 -1.19812,-0.782857 -1.3438,-0.771457 -2.36885,0.180868 -1.10428,1.025932 -1.43597,1.999878 -0.68109,1.999878 0.22612,0 0.70239,-0.288432 1.05833,-0.640788 0.5189,-0.51365 0.57942,-0.462803 0.30489,0.256315 -0.18833,0.493298 -0.56101,0.896586 -0.82786,0.896586 -0.26684,0 -0.80005,0.749942 -1.18494,1.666048 -0.38489,0.916125 -1.298,2.224476 -2.02933,2.907833 -1.46761,1.371332 -1.75844,2.362901 -0.55862,1.90376 0.42399,-0.162255 0.77049,-0.09857 0.77049,0.141593 0,0.240159 0.47776,0.561435 1.06144,0.713652 0.87888,0.229193 1.03322,0.613425 0.89917,2.23759 l -0.16175,1.961637 -3.28662,0.09973 c -2.98401,0.09064 -4.79052,0.728428 -4.07727,1.439706 0.2843,0.28351 5.44654,1.132982 9.85159,1.621089 2.4805,0.274858 2.48567,0.272162 1.8433,-0.930175 -0.3543,-0.663156 -1.01137,-1.489581 -1.45986,-1.836581 -0.54945,-0.425088 -0.63561,-0.759195 -0.26406,-1.024743 0.84319,-0.602797 1.30136,-2.18798 0.632,-2.18798 -0.32087,0 -0.43697,-0.146436 -0.25735,-0.325562 0.17962,-0.179125 0.91882,0.06109 1.64228,0.533818 0.72347,0.472706 1.54019,0.720681 1.81487,0.551387 0.69173,-0.426328 0.61833,0.154233 -0.35708,2.827734 -0.46279,1.268462 -0.98181,3.228804 -1.15342,4.356324 -0.30627,2.012253 -0.35158,2.050521 -2.44429,2.050521 -1.17268,0 -2.30776,0.17256 -2.52233,0.383955 -0.37961,0.37405 0.28971,0.517431 2.80655,0.600481 1.69006,0.05578 2.56309,1.51184 1.71669,2.863391 -0.35577,0.568128 -0.50728,1.587087 -0.33693,2.263944 0.21626,0.859223 -0.014,1.553471 -0.76275,2.300118 -1.34625,1.342557 -1.3509,1.910141 -0.017,2.621546 1.84654,0.985502 3.05083,3.592401 3.07113,6.648173 0.0103,1.550328 0.22848,4.433173 0.48524,6.406327 0.36199,2.78196 0.28635,4.306896 -0.33641,6.7908 -0.4417,1.761741 -1.00589,3.203422 -1.25419,3.203422 -0.2483,0 -0.48118,-0.173059 -0.51728,-0.384473 -0.0361,-0.211413 -0.12922,-0.845466 -0.20722,-1.409216 -0.078,-0.56375 -1.0719,-3.908087 -2.20865,-7.431588 -1.13676,-3.523483 -2.33143,-7.444203 -2.6541,-8.712646 -0.32285,-1.268462 -0.8112,-3.171635 -1.08573,-4.228683 -0.53291,-2.051893 -1.31932,-2.490586 -1.83606,-1.024743 -0.1739,0.493279 -0.87258,1.498708 -1.55236,2.233972 -0.67977,0.735265 -1.27503,1.860512 -1.32343,2.500622 -0.11035,1.460922 -5.06291,6.318313 -7.82537,7.674984 -2.269921,1.114806 -8.822387,1.82827 -9.980782,1.086755 -0.45411,-0.290661 -0.770762,-1.500453 -0.838192,-3.201871 -0.05961,-1.504067 -0.284746,-4.402364 -0.500228,-6.440434 -0.685269,-6.481583 0.677479,-8.427168 8.981364,-12.824023 l 2.801378,-1.483631 0.71727,-4.318599 c 0.39433,-2.375368 0.95813,-4.611994 1.25315,-4.97024 0.29502,-0.358225 1.66041,-1.281245 3.03393,-2.05052 1.5545,-0.870654 2.4972,-1.74981 2.49752,-2.329057 2.9e-4,-0.51183 0.23077,-1.35938 0.51211,-1.883606 0.55594,-1.035913 0.001,-3.196652 -0.79375,-3.090768 -0.99038,0.131952 -0.76846,-1.450099 0.24857,-1.771984 1.41749,-0.448654 2.08927,0.05208 2.08927,1.55701 0,0.780337 0.25606,1.164763 0.76843,1.224732 10e-4,-0.0064 0.003,-0.01273 0.005,-0.01912 -0.0629,-0.123931 -0.0704,-0.307083 0.0212,-0.531234 0.0621,-0.15202 0.12108,-0.304697 0.17622,-0.459404 0.0735,-0.22891 0.13105,-0.462067 0.19017,-0.695048 0.0628,-0.263914 0.12848,-0.526752 0.15709,-0.797367 0.0434,-0.268617 0.0744,-0.539084 0.0894,-0.810803 0.0123,-0.206778 0.003,-0.414096 0.004,-0.621151 -0.002,-0.270578 -0.004,-0.541326 -0.0103,-0.811837 -0.008,-0.296815 -0.0168,-0.594073 -0.0501,-0.889351 -0.0341,-0.257409 -0.0887,-0.510618 -0.14831,-0.763261 -0.0568,-0.222103 -0.12112,-0.44201 -0.19069,-0.660425 -0.0798,-0.238193 -0.14627,-0.480394 -0.21135,-0.722953 -0.0343,-0.0016 -0.0699,-0.0048 -0.10697,-0.01034 -0.19804,-0.02969 -0.38209,-0.101198 -0.56379,-0.182418 -0.20899,-0.09703 -0.40673,-0.214748 -0.60358,-0.33383 -0.20598,-0.113955 -0.40003,-0.243482 -0.56845,-0.408244 -0.0808,-0.08028 -0.13461,-0.177722 -0.18655,-0.277502 -0.15403,-0.295889 -0.0921,-0.536655 0.0486,-0.656808 -0.088,-0.210731 0.0409,-0.475369 0.45062,-0.510046 0.043,-0.07312 0.0911,-0.14339 0.14314,-0.210323 0.3624,-0.433308 0.79912,-0.794416 1.2578,-1.122412 0.39954,-0.284925 0.80207,-0.590263 1.26659,-0.759127 0.26196,-0.963916 0.38434,-2.107703 0.26097,-2.751253 -0.16508,-0.861149 -0.0367,-1.369942 0.34572,-1.369942 0.37465,0 0.48299,-0.394214 0.28215,-1.025261 -0.17943,-0.563751 -0.0988,-1.024743 0.17932,-1.024743 0.27816,0 0.59655,0.27129 0.70745,0.603063 0.11758,0.35177 0.37823,0.409276 0.64492,0.293006 0.0442,-0.08443 0.0864,-0.169521 0.12299,-0.257349 0.0671,-0.201286 0.11974,-0.406691 0.18448,-0.608748 0.0689,-0.189791 0.14783,-0.377354 0.18966,-0.575676 0.0501,-0.247429 0.0989,-0.494245 0.0951,-0.7482744 0.007,-0.2879356 -0.0141,-0.5764558 -0.0413,-0.8629964 -0.0322,-0.2792626 -0.07,-0.5591896 -0.18139,-0.820105 -0.073,-0.1752154 -0.13166,-0.3640363 -0.2744,-0.4966105 -0.20645,-0.1909794 -0.42744,-0.3688067 -0.60151,-0.5916951 -0.0442,-0.058967 -0.0869,-0.1188601 -0.12764,-0.179834 -0.27039,-0.1727343 -0.46901,-0.4874727 -0.49868,-0.8800496 -0.0426,-0.5637596 0.11794,-1.0252605 0.35657,-1.0252605 0.23863,0 0.30629,-0.484843 0.15089,-1.0774536 -0.16554,-0.6312643 0.014,-1.2646886 0.43357,-1.5296224 0.39386,-0.2487095 0.47752,-0.4556302 0.18552,-0.4599202 -0.29199,-0.00432 -0.50332,-0.6423165 -0.46922,-1.41748456 0.034,-0.77516859 0.24699,-1.33220004 0.47335,-1.23765055 0.22638,0.0945455 0.60171,-0.13391179 0.83354,-0.50797929 0.31706,-0.5115985 0.56729,-0.5342521 1.01079,-0.091984 0.37768,0.3766356 0.57182,2.5855798 0.54002,6.1458781 -0.0272,3.0568203 0.15864,6.4366971 0.4129,7.5111691 0.33444,1.413399 0.26908,2.324716 -0.23565,3.29489 -0.38368,0.737529 -0.54464,1.588008 -0.3576,1.889807 0.18704,0.301781 0.55568,-0.200918 0.81907,-1.116728 0.26337,-0.915808 0.67651,-1.665015 0.91829,-1.665015 0.24178,0 0.43977,-0.683193 0.43977,-1.518253 0,-0.835061 0.4876,-2.818304 1.08365,-4.4069663 1.48016,-3.9450855 1.6419,-11.1726322 0.29559,-13.2224487 -0.6707,-1.0211706 -0.78223,-1.6041025 -0.3948,-2.0696411 0.83774,-1.006829 -3.1367,-6.7561419 -5.50923,-7.9690229 -2.59635,-1.327288 -7.06349,-2.096675 -10.93783,-2.116666 z m -1.54875,21.1273922 c 0.0713,0.026227 0.0504,0.00254 0,0 z m -0.0532,0.00568 -5.2e-4,5.167e-4 c -0.006,0.00248 -0.01,0.00394 -0.0155,0.0062 0.007,0.00546 0.014,0.011177 0.0212,0.016536 -0.002,-0.00865 -0.004,-0.016452 -0.005,-0.023254 z m 3.26905,0.714685 c -0.0245,0.032436 -0.0553,0.057368 -0.0656,0.1064535 0.0243,-0.0389 0.0474,-0.075232 0.0605,-0.093018 5.5e-4,-7.501e-4 0.001,-0.00182 0.002,-0.00258 0.001,-0.00362 0.002,-0.00723 0.004,-0.010852 z m -1.69551,1.7549317 c -3.2e-4,9.87e-5 -6.5e-4,4.421e-4 -0.001,5.167e-4 -0.008,0.00217 -0.0255,0.01932 -0.0181,0.01602 0.008,-0.00341 0.0149,-0.00744 0.0222,-0.011369 -8.1e-4,-0.00175 -0.002,-0.00341 -0.003,-0.00517 z m -6.769091,0.2821533 c -0.791535,0.026619 -1.380794,0.2902639 -1.380794,0.7245036 0,0.2044783 1.098579,0.6132845 2.441194,0.9084716 1.815421,0.3991305 2.026231,0.5252862 0.822171,0.4929932 -1.746202,-0.046835 -3.444859,0.996455 -2.942455,1.807125 0.195458,0.315387 0.51459,0.29424 0.867648,-0.05788 0.718408,-0.716428 2.061967,-0.7288 1.619539,-0.01499 -0.184838,0.298247 0.206386,1.057219 0.869198,1.686202 1.44605,1.372266 2.54173,1.228055 3.33003,-0.437699 0.49727,-1.050776 0.42167,-1.351988 -0.51418,-2.049488 l -1.09658,-0.8175208 1.11777,0.223759 c 0.7993,0.1600673 1.03961,0.020419 0.84284,-0.4909261 C 104.12379,8.6639226 103.38955,8.2091899 102.6434,8.0473796 101.89726,7.8855675 100.64435,7.55147 99.859071,7.3047892 99.321759,7.1360056 98.773891,7.0666094 98.298959,7.0825806 Z M 87.867038,7.5192464 c -0.06143,-0.00118 -0.128806,0.018993 -0.199471,0.062528 -0.282665,0.17421 -0.514181,0.6629024 -0.514181,1.0857219 0,0.4228161 0.231516,0.625863 0.514181,0.451652 0.282644,-0.174211 0.513663,-0.6623856 0.513663,-1.0852051 0,-0.3171142 -0.129899,-0.5111739 -0.314192,-0.5146973 z m 1.352889,2.6499676 c -0.02891,-0.0029 -0.05838,0.0048 -0.08837,0.02325 -0.518205,0.3194 -0.580806,1.943472 -0.09353,2.429309 0.554575,0.553064 0.618691,0.421114 0.573091,-1.178222 -0.02085,-0.731454 -0.188828,-1.254219 -0.39119,-1.274341 z m 22.916943,2.970361 c 0.0614,0.0103 0.12881,0.03654 0.19948,0.0801 0.28247,0.174215 0.51366,0.418294 0.51366,0.542602 0,0.124306 -0.23119,0.225826 -0.51366,0.225826 -0.28266,0 -0.51419,-0.2441 -0.51419,-0.542602 0,-0.223891 0.13042,-0.336806 0.31471,-0.305925 z m 1.50327,4.029728 c -0.008,0.0025 -0.0291,0.01428 -0.0258,0.02222 1.5e-4,3.57e-4 3.8e-4,0.001 5.2e-4,0.001 0.009,-0.0074 0.0183,-0.01477 0.0274,-0.02222 0.002,-0.0014 -7.4e-4,-0.0014 -0.002,-0.001 z m -10.67738,1.982308 c -0.0852,0.02378 -0.27101,0.167481 -0.56431,0.408761 -0.47027,0.386872 -0.85473,1.059725 -0.85473,1.494999 0,0.930559 0.14697,0.80141 1.04232,-0.91674 0.38171,-0.732496 0.51867,-1.026655 0.37672,-0.98702 z m 2.00246,1.191659 c -0.22074,-0.02639 -0.45647,0.08434 -0.58963,0.299206 -0.17754,0.286483 0.0373,0.520899 0.47801,0.520899 0.90274,0 1.03564,-0.307375 0.32298,-0.746725 -0.0658,-0.04054 -0.13778,-0.06459 -0.21136,-0.07338 z m 2.37505,11.777059 c 0.054,-0.05389 0.12571,0.0183 0.20774,0.222725 0.14843,0.369974 0.1294,0.811566 -0.0408,0.981852 -0.17073,0.170306 -0.29205,-0.132032 -0.26975,-0.67231 0.0123,-0.298527 0.0488,-0.478381 0.10284,-0.532267 z m -5.88285,16.24707 c -0.052,-0.0073 -0.11473,-0.0057 -0.1881,0.0052 -0.3522,0.05215 -0.94847,0.314254 -1.766817,0.796334 -1.857514,1.094223 -2.474413,3.255 -2.081526,7.292578 0.284509,2.924076 0.516,3.445884 2.212784,4.996594 1.835829,1.67775 3.451469,2.254819 3.451469,1.232483 0,-0.274648 -0.7036,-0.862294 -1.56373,-1.305864 -2.083298,-1.074361 -2.634833,-2.750682 -2.223119,-6.758243 0.251014,-2.443266 0.674945,-3.721295 1.596289,-4.813143 0.76186,-0.902919 0.92668,-1.395137 0.56275,-1.445907 z m 16.43001,3.206523 c -0.76269,0.04285 -1.88717,0.545608 -1.66037,0.911572 0.15483,0.249837 0.44135,0.450584 0.63666,0.446484 0.64162,-0.01418 1.87285,-0.955612 1.60248,-1.225248 -0.11024,-0.109938 -0.32454,-0.14709 -0.57877,-0.132808 z m 66.47604,0.964282 c -0.28462,-0.04824 -1.01952,0.02158 -2.36781,0.181901 -3.01161,0.35809 -6.25531,1.77603 -5.58726,2.442228 0.49792,0.496547 0.84511,0.426319 2.05104,-0.415995 0.59534,-0.415856 1.86123,-0.805117 2.81275,-0.864547 0.95153,-0.05943 2.19264,-0.426634 2.75797,-0.816487 0.45259,-0.312131 0.61793,-0.47886 0.33331,-0.5271 z m -22.84821,0.684196 1.37045,2.164726 c 0.75378,1.190736 1.19431,2.170311 0.97876,2.176611 -0.21554,0.0063 0.18649,0.462142 0.89296,1.013375 1.55343,1.211742 2.24081,1.268928 3.08354,0.256315 0.35189,-0.422827 1.24786,-0.775965 1.99057,-0.784965 1.25206,-0.01511 1.2829,-0.06707 0.42375,-0.716752 -0.68544,-0.518334 -0.75272,-0.763015 -0.25735,-0.938961 0.36829,-0.130826 0.50248,-0.41678 0.29817,-0.63562 -0.20411,-0.218845 -1.17177,0.210978 -2.14973,0.95498 -0.97816,0.744022 -1.96746,1.347621 -2.19832,1.341521 -0.23086,-0.0061 -0.76664,-0.738424 -1.19063,-1.627291 -0.4238,-0.888866 -1.32702,-1.973472 -2.00659,-2.410189 z m 27.39729,0.22996 c -0.28267,0 -0.51418,0.359455 -0.51418,0.798918 0,0.43946 0.23151,0.656355 0.51418,0.482141 0.28266,-0.174215 0.51366,-0.53367 0.51366,-0.798918 0,-0.265249 -0.231,-0.482141 -0.51366,-0.482141 z m -6.06785,1.251086 c -0.75983,-0.04974 -2.34866,0.360478 -2.9006,0.865064 -0.29733,0.271988 -0.19675,0.44335 0.25735,0.43925 1.35666,-0.01274 3.0577,-0.61804 3.0577,-1.087789 0,-0.132218 -0.16117,-0.199944 -0.41445,-0.216525 z m 7.86206,0.63252 c -0.62254,0.03919 -1.28055,0.226217 -1.28055,0.482141 0,0.108063 0.59183,0.196371 1.31517,0.196371 0.72334,0 1.18563,-0.208632 1.02733,-0.464055 -0.0658,-0.106216 -0.24502,-0.171195 -0.47698,-0.201538 -0.17396,-0.02276 -0.37746,-0.02598 -0.58497,-0.01292 z m -4.1827,0.58291 c -0.51214,0.02221 -1.04206,0.100477 -1.46606,0.229444 -0.8478,0.257917 -1.84566,0.562316 -2.21691,0.676444 -0.37122,0.114127 -0.53094,0.44011 -0.35502,0.723987 0.39499,0.637309 1.13228,0.66776 1.5074,0.06253 0.15453,-0.249341 1.38239,-0.629912 2.72852,-0.845943 2.08602,-0.334802 2.25771,-0.444187 1.16272,-0.73949 -0.35333,-0.09527 -0.84832,-0.129177 -1.36065,-0.10697 z m -79.35743,5.750037 c -0.44044,-0.009 -1.25017,0.322028 -1.79885,0.735872 -0.79755,0.601578 -0.83686,0.755925 -0.19637,0.768945 0.44064,0.009 1.25017,-0.322526 1.79885,-0.736389 0.79757,-0.601559 0.83687,-0.755408 0.19637,-0.768428 z m 59.33437,5.202783 c -0.5483,0.0537 0.7675,1.502995 2.76365,2.84117 2.80461,1.879995 3.1252,1.960682 3.53726,0.889868 0.16652,-0.433232 1.02659,-1.183175 1.91099,-1.666048 l 1.60817,-0.877982 -4.11138,-0.285254 c -2.26112,-0.156892 -4.51907,-0.470781 -5.01674,-0.697632 -0.33963,-0.154747 -0.56542,-0.216515 -0.69195,-0.204122 z M 103.63558,176.82416 c 0.0513,0.0164 0.10822,0.0513 0.17054,0.10283 0.81835,0.67731 3.92822,7.33659 8.27701,17.72399 3.73488,8.92061 5.76595,12.80256 8.06566,15.41456 1.17633,1.33609 1.3788,1.88406 0.96686,2.61896 -0.2865,0.51114 -1.23705,3.78965 -2.11149,7.28534 -2.38326,9.5259 -7.3755,23.95015 -14.65234,42.33334 -1.33898,3.38244 -2.8493,7.53416 -3.35587,9.22527 -1.28031,4.27487 -1.205426,2.57493 0.26407,-5.99084 3.10997,-18.12849 4.19939,-35.9969 2.85305,-46.80128 -0.31003,-2.488 -0.54148,-8.11797 -0.51418,-12.51087 0.0273,-4.39268 -0.0734,-9.25587 -0.22427,-10.80605 -0.15078,-1.55036 -0.24466,-4.89481 -0.20826,-7.43159 0.0366,-2.53696 0.0515,-6.18223 0.0336,-8.1008 -0.0222,-2.38324 0.0765,-3.17787 0.43563,-3.06286 z m 7.4998,119.24595 c 0.37501,0.004 1.0697,0.19333 1.78336,0.50384 1.59567,0.69432 1.63047,0.75564 0.44545,0.78704 -1.41009,0.0373 -2.97862,-0.73879 -2.48615,-1.2299 0.0427,-0.0426 0.13252,-0.0622 0.25734,-0.061 z m -19.671146,25.11268 c 0.184294,0.008 0.31471,0.2125 0.31471,0.54208 0,0.43947 -0.231516,0.79892 -0.514181,0.79892 -0.282663,0 -0.513664,-0.21689 -0.513664,-0.48214 0,-0.26526 0.231001,-0.6247 0.513664,-0.79892 0.07067,-0.0435 0.13804,-0.0627 0.199471,-0.0599 z m -1.103292,2.87838 c 0.214671,0 0.390157,0.57686 0.390157,1.28157 0,1.18525 -0.929876,1.72114 -1.683101,0.96997 -0.36499,-0.36398 0.718976,-2.25154 1.292944,-2.25154 z" /></g></svg>
